<svg width="159" height="41" viewBox="0 0 159 41" fill="none" xmlns="http://www.w3.org/2000/svg">
<rect width="159" height="40.0132" rx="15" fill="#E7E7E7"/>
<path d="M44.0046 27L40.196 12.9082H42.4909L45.0788 23.875H45.1862L48.1354 12.9082H50.1862L53.1452 23.875H53.2526L55.8405 12.9082H58.1159L54.3171 27H52.2468L49.2194 16.4531H49.1022L46.0847 27H44.0046ZM63.6823 27.2051C62.6537 27.2051 61.7682 26.9837 61.0261 26.541C60.2904 26.0983 59.724 25.4701 59.3268 24.6562C58.9297 23.8424 58.7311 22.8789 58.7311 21.7656V21.7559C58.7311 20.6556 58.9297 19.6953 59.3268 18.875C59.724 18.0547 60.2839 17.4167 61.0065 16.9609C61.7357 16.4987 62.5918 16.2676 63.5749 16.2676C64.558 16.2676 65.4043 16.4889 66.114 16.9316C66.8236 17.3743 67.3672 17.9928 67.7448 18.7871C68.1289 19.5749 68.321 20.4961 68.321 21.5508V22.293H59.8054V20.7793H67.2761L66.2507 22.1758V21.3457C66.2507 20.5905 66.1367 19.9688 65.9089 19.4805C65.681 18.9857 65.3653 18.6178 64.9616 18.377C64.5645 18.1296 64.1055 18.0059 63.5847 18.0059C63.0638 18.0059 62.5983 18.1328 62.1882 18.3867C61.778 18.6406 61.4525 19.0182 61.2116 19.5195C60.9772 20.0143 60.86 20.623 60.86 21.3457V22.1855C60.86 22.8757 60.9772 23.4648 61.2116 23.9531C61.446 24.4414 61.778 24.8158 62.2077 25.0762C62.6374 25.3366 63.1452 25.4668 63.7311 25.4668C64.1738 25.4668 64.558 25.4017 64.8835 25.2715C65.2155 25.1413 65.4857 24.9818 65.694 24.793C65.9024 24.5977 66.0488 24.3991 66.1335 24.1973L66.1628 24.1191H68.2038L68.1843 24.207C68.0996 24.5716 67.9434 24.9329 67.7155 25.291C67.4877 25.6426 67.1849 25.9648 66.8073 26.2578C66.4362 26.5443 65.987 26.7754 65.4597 26.9512C64.9388 27.1204 64.3464 27.2051 63.6823 27.2051ZM76.2311 27.1855C75.7363 27.1855 75.2806 27.1107 74.864 26.9609C74.4473 26.8112 74.0794 26.5964 73.7604 26.3164C73.4479 26.0365 73.1875 25.7012 72.9792 25.3105H72.8425V27H70.7233V12.3906H72.8425V18.1621H72.9792C73.1745 17.778 73.4317 17.446 73.7507 17.166C74.0762 16.8861 74.4505 16.6712 74.8737 16.5215C75.2969 16.3652 75.7494 16.2871 76.2311 16.2871C77.1231 16.2871 77.8946 16.5085 78.5456 16.9512C79.2031 17.3939 79.711 18.0221 80.069 18.8359C80.4271 19.6497 80.6061 20.6133 80.6061 21.7266V21.7461C80.6061 22.8529 80.4238 23.8132 80.0593 24.627C79.7012 25.4408 79.1934 26.0723 78.5358 26.5215C77.8848 26.9642 77.1166 27.1855 76.2311 27.1855ZM75.6354 25.3691C76.2214 25.3691 76.7227 25.2227 77.1393 24.9297C77.556 24.6367 77.875 24.2201 78.0964 23.6797C78.3242 23.1393 78.4382 22.4948 78.4382 21.7461V21.7266C78.4382 20.9714 78.3242 20.3268 78.0964 19.793C77.875 19.2526 77.556 18.8359 77.1393 18.543C76.7227 18.25 76.2214 18.1035 75.6354 18.1035C75.0625 18.1035 74.5645 18.25 74.1413 18.543C73.7181 18.8359 73.3893 19.2526 73.155 19.793C72.9271 20.3333 72.8132 20.9779 72.8132 21.7266V21.7461C72.8132 22.4883 72.9271 23.1296 73.155 23.6699C73.3893 24.2103 73.7181 24.6302 74.1413 24.9297C74.5645 25.2227 75.0625 25.3691 75.6354 25.3691ZM86.7682 27.2051C85.9154 27.2051 85.1765 27.0781 84.5515 26.8242C83.9265 26.5703 83.4284 26.2188 83.0573 25.7695C82.6927 25.3138 82.4779 24.7865 82.4128 24.1875L82.403 24.1582H84.5222L84.5319 24.1875C84.6621 24.6042 84.916 24.9395 85.2936 25.1934C85.6712 25.4408 86.1758 25.5645 86.8073 25.5645C87.2435 25.5645 87.6211 25.5059 87.9401 25.3887C88.2656 25.265 88.5196 25.0957 88.7018 24.8809C88.8841 24.666 88.9753 24.4154 88.9753 24.1289V24.1094C88.9753 23.7773 88.8451 23.5007 88.5847 23.2793C88.3307 23.0579 87.9043 22.8757 87.3054 22.7324L85.6257 22.3516C84.9616 22.1953 84.4115 21.9902 83.9753 21.7363C83.5391 21.4759 83.2136 21.1569 82.9987 20.7793C82.7904 20.3952 82.6862 19.946 82.6862 19.4316V19.4219C82.6862 18.8034 82.8587 18.2598 83.2038 17.791C83.5554 17.3158 84.0404 16.9447 84.6589 16.6777C85.2774 16.4043 85.9837 16.2676 86.778 16.2676C87.5853 16.2676 88.2884 16.3978 88.8874 16.6582C89.4863 16.9121 89.9584 17.2637 90.3034 17.7129C90.6485 18.1556 90.8503 18.6667 90.9089 19.2461V19.2852H88.8874V19.2559C88.7962 18.8652 88.5684 18.543 88.2038 18.2891C87.8457 18.0352 87.3672 17.9082 86.7682 17.9082C86.3841 17.9082 86.0456 17.9668 85.7526 18.084C85.4597 18.2012 85.2285 18.3639 85.0593 18.5723C84.8965 18.7806 84.8151 19.028 84.8151 19.3145V19.334C84.8151 19.5488 84.8705 19.7409 84.9811 19.9102C85.0918 20.0729 85.2676 20.2194 85.5085 20.3496C85.7494 20.4733 86.0619 20.5807 86.446 20.6719L88.1257 21.0625C89.1543 21.2969 89.9095 21.6419 90.3913 22.0977C90.8796 22.5469 91.1237 23.1523 91.1237 23.9141V23.9336C91.1237 24.5846 90.9349 25.1576 90.5573 25.6523C90.1797 26.1406 89.6621 26.5215 89.0046 26.7949C88.3535 27.0684 87.6081 27.2051 86.7682 27.2051ZM93.487 27V16.4727H95.6061V27H93.487ZM94.5515 14.6562C94.1934 14.6562 93.8841 14.5293 93.6237 14.2754C93.3698 14.015 93.2429 13.709 93.2429 13.3574C93.2429 12.9928 93.3698 12.6868 93.6237 12.4395C93.8841 12.1855 94.1934 12.0586 94.5515 12.0586C94.916 12.0586 95.2253 12.1855 95.4792 12.4395C95.7331 12.6868 95.86 12.9928 95.86 13.3574C95.86 13.709 95.7331 14.015 95.4792 14.2754C95.2253 14.5293 94.916 14.6562 94.5515 14.6562ZM102.393 27.0977C101.267 27.0977 100.447 26.873 99.9323 26.4238C99.418 25.9746 99.1608 25.2422 99.1608 24.2266V18.1523H97.5495V16.4727H99.1608V13.7969H101.329V16.4727H103.526V18.1523H101.329V23.8066C101.329 24.36 101.443 24.7572 101.671 24.998C101.905 25.2389 102.273 25.3594 102.774 25.3594C102.924 25.3594 103.054 25.3561 103.165 25.3496C103.275 25.3366 103.396 25.3268 103.526 25.3203V27C103.37 27.026 103.194 27.0488 102.999 27.0684C102.803 27.0879 102.602 27.0977 102.393 27.0977ZM110.108 27.2051C109.079 27.2051 108.194 26.9837 107.452 26.541C106.716 26.0983 106.15 25.4701 105.753 24.6562C105.355 23.8424 105.157 22.8789 105.157 21.7656V21.7559C105.157 20.6556 105.355 19.6953 105.753 18.875C106.15 18.0547 106.71 17.4167 107.432 16.9609C108.161 16.4987 109.018 16.2676 110.001 16.2676C110.984 16.2676 111.83 16.4889 112.54 16.9316C113.249 17.3743 113.793 17.9928 114.171 18.7871C114.555 19.5749 114.747 20.4961 114.747 21.5508V22.293H106.231V20.7793H113.702L112.676 22.1758V21.3457C112.676 20.5905 112.563 19.9688 112.335 19.4805C112.107 18.9857 111.791 18.6178 111.387 18.377C110.99 18.1296 110.531 18.0059 110.01 18.0059C109.49 18.0059 109.024 18.1328 108.614 18.3867C108.204 18.6406 107.878 19.0182 107.637 19.5195C107.403 20.0143 107.286 20.623 107.286 21.3457V22.1855C107.286 22.8757 107.403 23.4648 107.637 23.9531C107.872 24.4414 108.204 24.8158 108.633 25.0762C109.063 25.3366 109.571 25.4668 110.157 25.4668C110.6 25.4668 110.984 25.4017 111.309 25.2715C111.641 25.1413 111.911 24.9818 112.12 24.793C112.328 24.5977 112.475 24.3991 112.559 24.1973L112.589 24.1191H114.63L114.61 24.207C114.525 24.5716 114.369 24.9329 114.141 25.291C113.913 25.6426 113.611 25.9648 113.233 26.2578C112.862 26.5443 112.413 26.7754 111.885 26.9512C111.365 27.1204 110.772 27.2051 110.108 27.2051Z" fill="black"/>
<path d="M20.2544 31.0319C21.6697 31.0319 23.0712 30.7532 24.3788 30.2115C25.6864 29.6699 26.8745 28.876 27.8753 27.8753C28.876 26.8745 29.6699 25.6864 30.2115 24.3788C30.7532 23.0712 31.0319 21.6697 31.0319 20.2544C31.0319 18.839 30.7532 17.4376 30.2115 16.13C29.6699 14.8224 28.876 13.6343 27.8753 12.6335C26.8745 11.6327 25.6864 10.8388 24.3788 10.2972C23.0712 9.75558 21.6697 9.47681 20.2544 9.47681M20.2544 31.0319C18.839 31.0319 17.4376 30.7532 16.13 30.2115C14.8224 29.6699 13.6343 28.876 12.6335 27.8753C11.6327 26.8745 10.8388 25.6864 10.2972 24.3788C9.75558 23.0712 9.47681 21.6697 9.47681 20.2544C9.47681 18.839 9.75558 17.4376 10.2972 16.13C10.8388 14.8224 11.6327 13.6343 12.6335 12.6335C13.6343 11.6327 14.8224 10.8388 16.13 10.2972C17.4376 9.75558 18.839 9.47681 20.2544 9.47681M20.2544 31.0319C23.5607 31.0319 24.9737 24.8492 24.9737 20.2544C24.9737 15.6595 23.5607 9.47681 20.2544 9.47681M20.2544 31.0319C16.9481 31.0319 15.535 24.8492 15.535 20.2544C15.535 15.6595 16.9481 9.47681 20.2544 9.47681M10.0756 16.6618H30.4332M10.0756 23.8469H30.4332" stroke="#626262" stroke-width="1.5" stroke-linecap="round" stroke-linejoin="round"/>
</svg>
