<svg width="159" height="40" viewBox="0 0 159 40" fill="none" xmlns="http://www.w3.org/2000/svg">
<rect width="159" height="40" rx="15" fill="#E7E7E7"/>
<path d="M43.8242 27L40.0156 12.9082H42.3105L44.8984 23.875H45.0059L47.9551 12.9082H50.0059L52.9648 23.875H53.0723L55.6602 12.9082H57.9355L54.1367 27H52.0664L49.0391 16.4531H48.9219L45.9043 27H43.8242ZM60.2109 27V12.3906H62.3301V18.1035H62.4668C62.7272 17.5241 63.1146 17.0749 63.6289 16.7559C64.1497 16.4303 64.7943 16.2676 65.5625 16.2676C66.3438 16.2676 67.0078 16.4271 67.5547 16.7461C68.1016 17.0586 68.5182 17.5143 68.8047 18.1133C69.0911 18.7057 69.2344 19.4186 69.2344 20.252V27H67.1152V20.7305C67.1152 19.8581 66.9264 19.2005 66.5488 18.7578C66.1712 18.3086 65.5951 18.084 64.8203 18.084C64.3125 18.084 63.873 18.1979 63.502 18.4258C63.1309 18.6536 62.8411 18.9727 62.6328 19.3828C62.431 19.793 62.3301 20.278 62.3301 20.8379V27H60.2109ZM72.0176 27V16.4727H74.1367V27H72.0176ZM73.082 14.6562C72.724 14.6562 72.4147 14.5293 72.1543 14.2754C71.9004 14.015 71.7734 13.709 71.7734 13.3574C71.7734 12.9928 71.9004 12.6868 72.1543 12.4395C72.4147 12.1855 72.724 12.0586 73.082 12.0586C73.4466 12.0586 73.7559 12.1855 74.0098 12.4395C74.2637 12.6868 74.3906 12.9928 74.3906 13.3574C74.3906 13.709 74.2637 14.015 74.0098 14.2754C73.7559 14.5293 73.4466 14.6562 73.082 14.6562ZM80.9238 27.0977C79.7975 27.0977 78.9772 26.873 78.4629 26.4238C77.9486 25.9746 77.6914 25.2422 77.6914 24.2266V18.1523H76.0801V16.4727H77.6914V13.7969H79.8594V16.4727H82.0566V18.1523H79.8594V23.8066C79.8594 24.36 79.9733 24.7572 80.2012 24.998C80.4355 25.2389 80.8034 25.3594 81.3047 25.3594C81.4544 25.3594 81.5846 25.3561 81.6953 25.3496C81.806 25.3366 81.9264 25.3268 82.0566 25.3203V27C81.9004 27.026 81.7246 27.0488 81.5293 27.0684C81.334 27.0879 81.1322 27.0977 80.9238 27.0977ZM88.6387 27.2051C87.61 27.2051 86.7246 26.9837 85.9824 26.541C85.2467 26.0983 84.6803 25.4701 84.2832 24.6562C83.8861 23.8424 83.6875 22.8789 83.6875 21.7656V21.7559C83.6875 20.6556 83.8861 19.6953 84.2832 18.875C84.6803 18.0547 85.2402 17.4167 85.9629 16.9609C86.6921 16.4987 87.5482 16.2676 88.5312 16.2676C89.5143 16.2676 90.3607 16.4889 91.0703 16.9316C91.7799 17.3743 92.3236 17.9928 92.7012 18.7871C93.0853 19.5749 93.2773 20.4961 93.2773 21.5508V22.293H84.7617V20.7793H92.2324L91.207 22.1758V21.3457C91.207 20.5905 91.0931 19.9688 90.8652 19.4805C90.6374 18.9857 90.3216 18.6178 89.918 18.377C89.5208 18.1296 89.0618 18.0059 88.541 18.0059C88.0202 18.0059 87.5547 18.1328 87.1445 18.3867C86.7344 18.6406 86.4089 19.0182 86.168 19.5195C85.9336 20.0143 85.8164 20.623 85.8164 21.3457V22.1855C85.8164 22.8757 85.9336 23.4648 86.168 23.9531C86.4023 24.4414 86.7344 24.8158 87.1641 25.0762C87.5938 25.3366 88.1016 25.4668 88.6875 25.4668C89.1302 25.4668 89.5143 25.4017 89.8398 25.2715C90.1719 25.1413 90.4421 24.9818 90.6504 24.793C90.8587 24.5977 91.0052 24.3991 91.0898 24.1973L91.1191 24.1191H93.1602L93.1406 24.207C93.056 24.5716 92.8997 24.9329 92.6719 25.291C92.444 25.6426 92.1413 25.9648 91.7637 26.2578C91.3926 26.5443 90.9434 26.7754 90.416 26.9512C89.8952 27.1204 89.3027 27.2051 88.6387 27.2051ZM95.582 30.5059V16.4727H97.7109V18.1621H97.8477C98.0495 17.7715 98.3099 17.4362 98.6289 17.1562C98.9479 16.8763 99.3125 16.6615 99.7227 16.5117C100.139 16.362 100.595 16.2871 101.09 16.2871C101.982 16.2871 102.753 16.5117 103.404 16.9609C104.062 17.4036 104.57 18.0319 104.928 18.8457C105.286 19.6595 105.465 20.6198 105.465 21.7266V21.7461C105.465 22.8594 105.286 23.8229 104.928 24.6367C104.57 25.4505 104.065 26.0788 103.414 26.5215C102.763 26.9642 101.992 27.1855 101.1 27.1855C100.611 27.1855 100.156 27.1107 99.7324 26.9609C99.3158 26.8047 98.9447 26.5866 98.6191 26.3066C98.2936 26.0267 98.0365 25.6947 97.8477 25.3105H97.7109V30.5059H95.582ZM100.494 25.3691C101.08 25.3691 101.581 25.2227 101.998 24.9297C102.415 24.6367 102.734 24.2201 102.955 23.6797C103.183 23.1393 103.297 22.4948 103.297 21.7461V21.7266C103.297 20.9714 103.183 20.3236 102.955 19.7832C102.734 19.2428 102.415 18.8294 101.998 18.543C101.581 18.25 101.08 18.1035 100.494 18.1035C99.9212 18.1035 99.4232 18.25 99 18.543C98.5768 18.8359 98.2513 19.2526 98.0234 19.793C97.7956 20.3333 97.6816 20.9779 97.6816 21.7266V21.7461C97.6816 22.4883 97.7956 23.1296 98.0234 23.6699C98.2578 24.2103 98.5833 24.6302 99 24.9297C99.4232 25.2227 99.9212 25.3691 100.494 25.3691ZM110.729 27.1855C110.051 27.1855 109.449 27.0553 108.922 26.7949C108.401 26.5345 107.988 26.1699 107.682 25.7012C107.382 25.2259 107.232 24.6693 107.232 24.0312V24.0117C107.232 23.3867 107.385 22.8529 107.691 22.4102C107.997 21.9609 108.443 21.6094 109.029 21.3555C109.615 21.0951 110.325 20.9421 111.158 20.8965L115.064 20.6621V22.1562L111.441 22.3809C110.738 22.4199 110.214 22.5729 109.869 22.8398C109.524 23.1068 109.352 23.4714 109.352 23.9336V23.9531C109.352 24.4349 109.534 24.8125 109.898 25.0859C110.263 25.3529 110.732 25.4863 111.305 25.4863C111.819 25.4863 112.281 25.3822 112.691 25.1738C113.102 24.959 113.424 24.6725 113.658 24.3145C113.893 23.9564 114.01 23.5495 114.01 23.0938V19.8223C114.01 19.2493 113.827 18.8066 113.463 18.4941C113.105 18.1816 112.577 18.0254 111.881 18.0254C111.282 18.0254 110.797 18.1361 110.426 18.3574C110.055 18.5723 109.811 18.8717 109.693 19.2559L109.674 19.3047H107.643L107.652 19.2168C107.73 18.6374 107.955 18.1263 108.326 17.6836C108.704 17.2409 109.199 16.8958 109.811 16.6484C110.429 16.3945 111.145 16.2676 111.959 16.2676C112.838 16.2676 113.587 16.4108 114.205 16.6973C114.83 16.9772 115.305 17.3809 115.631 17.9082C115.956 18.429 116.119 19.054 116.119 19.7832V27H114.01V25.4668H113.873C113.665 25.8249 113.404 26.1341 113.092 26.3945C112.779 26.6484 112.424 26.8438 112.027 26.9805C111.63 27.1172 111.197 27.1855 110.729 27.1855ZM118.883 30.5059V16.4727H121.012V18.1621H121.148C121.35 17.7715 121.611 17.4362 121.93 17.1562C122.249 16.8763 122.613 16.6615 123.023 16.5117C123.44 16.362 123.896 16.2871 124.391 16.2871C125.283 16.2871 126.054 16.5117 126.705 16.9609C127.363 17.4036 127.87 18.0319 128.229 18.8457C128.587 19.6595 128.766 20.6198 128.766 21.7266V21.7461C128.766 22.8594 128.587 23.8229 128.229 24.6367C127.87 25.4505 127.366 26.0788 126.715 26.5215C126.064 26.9642 125.292 27.1855 124.4 27.1855C123.912 27.1855 123.456 27.1107 123.033 26.9609C122.617 26.8047 122.245 26.5866 121.92 26.3066C121.594 26.0267 121.337 25.6947 121.148 25.3105H121.012V30.5059H118.883ZM123.795 25.3691C124.381 25.3691 124.882 25.2227 125.299 24.9297C125.715 24.6367 126.035 24.2201 126.256 23.6797C126.484 23.1393 126.598 22.4948 126.598 21.7461V21.7266C126.598 20.9714 126.484 20.3236 126.256 19.7832C126.035 19.2428 125.715 18.8294 125.299 18.543C124.882 18.25 124.381 18.1035 123.795 18.1035C123.222 18.1035 122.724 18.25 122.301 18.543C121.878 18.8359 121.552 19.2526 121.324 19.793C121.096 20.3333 120.982 20.9779 120.982 21.7266V21.7461C120.982 22.4883 121.096 23.1296 121.324 23.6699C121.559 24.2103 121.884 24.6302 122.301 24.9297C122.724 25.2227 123.222 25.3691 123.795 25.3691ZM135.533 27.2051C134.505 27.2051 133.619 26.9837 132.877 26.541C132.141 26.0983 131.575 25.4701 131.178 24.6562C130.781 23.8424 130.582 22.8789 130.582 21.7656V21.7559C130.582 20.6556 130.781 19.6953 131.178 18.875C131.575 18.0547 132.135 17.4167 132.857 16.9609C133.587 16.4987 134.443 16.2676 135.426 16.2676C136.409 16.2676 137.255 16.4889 137.965 16.9316C138.674 17.3743 139.218 17.9928 139.596 18.7871C139.98 19.5749 140.172 20.4961 140.172 21.5508V22.293H131.656V20.7793H139.127L138.102 22.1758V21.3457C138.102 20.5905 137.988 19.9688 137.76 19.4805C137.532 18.9857 137.216 18.6178 136.812 18.377C136.415 18.1296 135.956 18.0059 135.436 18.0059C134.915 18.0059 134.449 18.1328 134.039 18.3867C133.629 18.6406 133.303 19.0182 133.062 19.5195C132.828 20.0143 132.711 20.623 132.711 21.3457V22.1855C132.711 22.8757 132.828 23.4648 133.062 23.9531C133.297 24.4414 133.629 24.8158 134.059 25.0762C134.488 25.3366 134.996 25.4668 135.582 25.4668C136.025 25.4668 136.409 25.4017 136.734 25.2715C137.066 25.1413 137.337 24.9818 137.545 24.793C137.753 24.5977 137.9 24.3991 137.984 24.1973L138.014 24.1191H140.055L140.035 24.207C139.951 24.5716 139.794 24.9329 139.566 25.291C139.339 25.6426 139.036 25.9648 138.658 26.2578C138.287 26.5443 137.838 26.7754 137.311 26.9512C136.79 27.1204 136.197 27.2051 135.533 27.2051ZM142.477 27V16.4727H144.605V18.1133H144.742C144.924 17.5339 145.247 17.0846 145.709 16.7656C146.171 16.4466 146.741 16.2871 147.418 16.2871C147.587 16.2871 147.75 16.2969 147.906 16.3164C148.069 16.3359 148.199 16.3555 148.297 16.375V18.3379C148.134 18.2988 147.962 18.2695 147.779 18.25C147.597 18.224 147.405 18.2109 147.203 18.2109C146.682 18.2109 146.227 18.3151 145.836 18.5234C145.445 18.7253 145.143 19.015 144.928 19.3926C144.713 19.7637 144.605 20.2031 144.605 20.7109V27H142.477Z" fill="black"/>
<path d="M25.5 9C26.4565 8.99995 27.3769 9.36541 28.0728 10.0216C28.7688 10.6778 29.1876 11.5751 29.2438 12.53L29.25 12.75V25.25H30.1875C30.9963 25.25 31.6625 25.865 31.7425 26.6525L31.75 26.8125V29C31.7501 29.9565 31.3846 30.8769 30.7284 31.5728C30.0722 32.2688 29.1749 32.6876 28.22 32.7438L28 32.75H15.5C14.5435 32.7501 13.6231 32.3846 12.9272 31.7284C12.2312 31.0722 11.8124 30.1749 11.7563 29.22L11.75 29V16.5H9.5625C9.17568 16.5002 8.80254 16.3569 8.51529 16.0978C8.22805 15.8387 8.04711 15.4823 8.0075 15.0975L8 14.9375V12.75C7.99995 11.7935 8.36541 10.8731 9.0216 10.1772C9.6778 9.48124 10.5751 9.06237 11.53 9.00625L11.75 9H25.5ZM25.5 11.5H14.25V29C14.25 29.3315 14.3817 29.6495 14.6161 29.8839C14.8505 30.1183 15.1685 30.25 15.5 30.25C15.8315 30.25 16.1495 30.1183 16.3839 29.8839C16.6183 29.6495 16.75 29.3315 16.75 29V26.8125C16.75 25.95 17.45 25.25 18.3125 25.25H26.75V12.75C26.75 12.4185 26.6183 12.1005 26.3839 11.8661C26.1495 11.6317 25.8315 11.5 25.5 11.5ZM29.25 27.75H19.25V29C19.25 29.4375 19.175 29.8587 19.0375 30.25H28C28.3315 30.25 28.6495 30.1183 28.8839 29.8839C29.1183 29.6495 29.25 29.3315 29.25 29V27.75ZM20.5 20.25C20.8315 20.25 21.1495 20.3817 21.3839 20.6161C21.6183 20.8505 21.75 21.1685 21.75 21.5C21.75 21.8315 21.6183 22.1495 21.3839 22.3839C21.1495 22.6183 20.8315 22.75 20.5 22.75H18C17.6685 22.75 17.3505 22.6183 17.1161 22.3839C16.8817 22.1495 16.75 21.8315 16.75 21.5C16.75 21.1685 16.8817 20.8505 17.1161 20.6161C17.3505 20.3817 17.6685 20.25 18 20.25H20.5ZM23 15.25C23.3315 15.25 23.6495 15.3817 23.8839 15.6161C24.1183 15.8505 24.25 16.1685 24.25 16.5C24.25 16.8315 24.1183 17.1495 23.8839 17.3839C23.6495 17.6183 23.3315 17.75 23 17.75H18C17.6685 17.75 17.3505 17.6183 17.1161 17.3839C16.8817 17.1495 16.75 16.8315 16.75 16.5C16.75 16.1685 16.8817 15.8505 17.1161 15.6161C17.3505 15.3817 17.6685 15.25 18 15.25H23ZM11.75 11.5C11.4438 11.5 11.1483 11.6124 10.9195 11.8159C10.6907 12.0193 10.5446 12.2997 10.5087 12.6037L10.5 12.75V14H11.75V11.5Z" fill="#626262"/>
</svg>
